<?xml version="1.0" encoding="UTF-8"?>
<!DOCTYPE svg PUBLIC "-//W3C//DTD SVG 1.1//EN" "http://www.w3.org/Graphics/SVG/1.1/DTD/svg11.dtd">
<!-- Creator: CorelDRAW -->
<svg xmlns="http://www.w3.org/2000/svg" xml:space="preserve" width="297mm" height="210mm" style="shape-rendering:geometricPrecision; text-rendering:geometricPrecision; image-rendering:optimizeQuality; fill-rule:evenodd; clip-rule:evenodd"
viewBox="0 0 297 210"
 xmlns:xlink="http://www.w3.org/1999/xlink">
 <defs>
  <style type="text/css">
   <![CDATA[
    .fil0 {fill:#34388F}
   ]]>
  </style>
 </defs>
 <g id="图层_x0020_1">
  <metadata id="CorelCorpID_0Corel-Layer"/>
  <path class="fil0" d="M182.292 107.893c3.8599,31.8379 -35.1044,74.6642 -95.0252,62.7204 61.5988,27.1427 152.836,-6.1996 130.919,-90.869 -98.2848,46.9424 -160.98,57.8377 -175.126,12.0907 -19.2566,64.4676 54.7736,73.6311 139.232,16.0579zm31.3602 -33.0605c-22.5731,-48.6837 -106.16,-57.0524 -143.34,-27.7015 -17.5035,13.8176 -24.9296,40.6077 -2.1913,54.2093 28.9458,17.3165 95.8729,-3.0786 145.531,-26.5078zm-36.8388 2.456c-17.9392,-29.979 -50.6807,-42.8891 -76.3699,-36.9472 -24.8817,5.7546 -45.8267,32.9512 -12.1451,44.8975 23.6774,8.3979 64.3935,3.6235 88.515,-7.9503zm42.3411 -11.927l9.4528 18.1088 28.3568 -20.8585 -37.8096 2.7497z"/>
 </g>
</svg>
